<mxfile host="app.diagrams.net" modified="2023-11-18T12:03:10.541Z" agent="Mozilla/5.0 (Windows NT 10.0; Win64; x64) AppleWebKit/537.36 (KHTML, like Gecko) Chrome/119.0.0.0 Safari/537.36 Edg/119.0.0.0" etag="qLJ43foQKYgCHV2WM498" version="22.1.3" type="github">
  <diagram name="第 1 页" id="OZzQpCI_drUhM6XqtYFH">
    <mxGraphModel dx="1173" dy="772" grid="1" gridSize="10" guides="1" tooltips="1" connect="1" arrows="1" fold="1" page="1" pageScale="1" pageWidth="827" pageHeight="1169" math="0" shadow="0">
      <root>
        <mxCell id="0" />
        <mxCell id="1" parent="0" />
        <mxCell id="b81xQP9UtocRlLRCst7A-1" value="借款人" style="shape=umlActor;verticalLabelPosition=bottom;verticalAlign=top;html=1;" parent="1" vertex="1">
          <mxGeometry x="680" y="400" width="30" height="60" as="geometry" />
        </mxCell>
        <mxCell id="b81xQP9UtocRlLRCst7A-2" value="" style="html=1;whiteSpace=wrap;" parent="1" vertex="1">
          <mxGeometry x="110" y="200" width="190" height="400" as="geometry" />
        </mxCell>
        <mxCell id="b81xQP9UtocRlLRCst7A-3" value="&lt;font style=&quot;font-size: 14px;&quot;&gt;还款子系统&lt;/font&gt;" style="text;html=1;align=center;verticalAlign=middle;resizable=0;points=[];autosize=1;strokeColor=none;fillColor=none;" parent="1" vertex="1">
          <mxGeometry x="110" y="200" width="90" height="30" as="geometry" />
        </mxCell>
        <mxCell id="b81xQP9UtocRlLRCst7A-4" value="&lt;span style=&quot;font-size: 14px;&quot;&gt;正常结清当期&lt;/span&gt;" style="ellipse;whiteSpace=wrap;html=1;" parent="1" vertex="1">
          <mxGeometry x="430" y="221.25" width="120" height="47.5" as="geometry" />
        </mxCell>
        <mxCell id="b81xQP9UtocRlLRCst7A-5" value="&lt;span style=&quot;font-size: 14px;&quot;&gt;提前结清当期&lt;/span&gt;" style="ellipse;whiteSpace=wrap;html=1;" parent="1" vertex="1">
          <mxGeometry x="430" y="300" width="120" height="47.5" as="geometry" />
        </mxCell>
        <mxCell id="b81xQP9UtocRlLRCst7A-6" value="&lt;span style=&quot;font-size: 14px;&quot;&gt;提前还部分&lt;/span&gt;" style="ellipse;whiteSpace=wrap;html=1;" parent="1" vertex="1">
          <mxGeometry x="430" y="380" width="120" height="47.5" as="geometry" />
        </mxCell>
        <mxCell id="b81xQP9UtocRlLRCst7A-7" value="&lt;span style=&quot;font-size: 14px;&quot;&gt;逾期还款&lt;/span&gt;" style="ellipse;whiteSpace=wrap;html=1;" parent="1" vertex="1">
          <mxGeometry x="430" y="460" width="120" height="47.5" as="geometry" />
        </mxCell>
        <mxCell id="b81xQP9UtocRlLRCst7A-8" value="&lt;span style=&quot;font-size: 14px;&quot;&gt;提前结清借据&lt;/span&gt;" style="ellipse;whiteSpace=wrap;html=1;" parent="1" vertex="1">
          <mxGeometry x="430" y="537" width="120" height="47.5" as="geometry" />
        </mxCell>
        <mxCell id="b81xQP9UtocRlLRCst7A-16" value="&lt;span style=&quot;font-size: 14px;&quot;&gt;还款试算&lt;/span&gt;" style="ellipse;whiteSpace=wrap;html=1;" parent="1" vertex="1">
          <mxGeometry x="145" y="380" width="120" height="47.5" as="geometry" />
        </mxCell>
        <mxCell id="b81xQP9UtocRlLRCst7A-18" value="&amp;lt;&amp;lt;include&amp;gt;&amp;gt;" style="endArrow=open;endSize=12;dashed=1;html=1;rounded=0;entryX=0.5;entryY=0;entryDx=0;entryDy=0;exitX=0;exitY=0.5;exitDx=0;exitDy=0;" parent="1" source="b81xQP9UtocRlLRCst7A-4" target="b81xQP9UtocRlLRCst7A-16" edge="1">
          <mxGeometry width="160" relative="1" as="geometry">
            <mxPoint x="270" y="250" as="sourcePoint" />
            <mxPoint x="430" y="250" as="targetPoint" />
          </mxGeometry>
        </mxCell>
        <mxCell id="b81xQP9UtocRlLRCst7A-19" value="&amp;lt;&amp;lt;include&amp;gt;&amp;gt;" style="endArrow=open;endSize=12;dashed=1;html=1;rounded=0;exitX=0;exitY=0.5;exitDx=0;exitDy=0;" parent="1" source="b81xQP9UtocRlLRCst7A-5" target="b81xQP9UtocRlLRCst7A-16" edge="1">
          <mxGeometry width="160" relative="1" as="geometry">
            <mxPoint x="440" y="255" as="sourcePoint" />
            <mxPoint x="215" y="371" as="targetPoint" />
          </mxGeometry>
        </mxCell>
        <mxCell id="b81xQP9UtocRlLRCst7A-20" value="&amp;lt;&amp;lt;include&amp;gt;&amp;gt;" style="endArrow=open;endSize=12;dashed=1;html=1;rounded=0;entryX=1;entryY=0.5;entryDx=0;entryDy=0;" parent="1" source="b81xQP9UtocRlLRCst7A-6" target="b81xQP9UtocRlLRCst7A-16" edge="1">
          <mxGeometry width="160" relative="1" as="geometry">
            <mxPoint x="440" y="334" as="sourcePoint" />
            <mxPoint x="260" y="398" as="targetPoint" />
          </mxGeometry>
        </mxCell>
        <mxCell id="b81xQP9UtocRlLRCst7A-21" value="&amp;lt;&amp;lt;include&amp;gt;&amp;gt;" style="endArrow=open;endSize=12;dashed=1;html=1;rounded=0;entryX=1;entryY=1;entryDx=0;entryDy=0;exitX=0;exitY=0.5;exitDx=0;exitDy=0;" parent="1" source="b81xQP9UtocRlLRCst7A-7" target="b81xQP9UtocRlLRCst7A-16" edge="1">
          <mxGeometry width="160" relative="1" as="geometry">
            <mxPoint x="440" y="414" as="sourcePoint" />
            <mxPoint x="275" y="414" as="targetPoint" />
          </mxGeometry>
        </mxCell>
        <mxCell id="b81xQP9UtocRlLRCst7A-22" value="&amp;lt;&amp;lt;include&amp;gt;&amp;gt;" style="endArrow=open;endSize=12;dashed=1;html=1;rounded=0;entryX=0.5;entryY=1;entryDx=0;entryDy=0;exitX=0;exitY=0.5;exitDx=0;exitDy=0;" parent="1" source="b81xQP9UtocRlLRCst7A-8" target="b81xQP9UtocRlLRCst7A-16" edge="1">
          <mxGeometry width="160" relative="1" as="geometry">
            <mxPoint x="440" y="494" as="sourcePoint" />
            <mxPoint x="258" y="430" as="targetPoint" />
          </mxGeometry>
        </mxCell>
        <mxCell id="b81xQP9UtocRlLRCst7A-23" value="&lt;span style=&quot;font-size: 14px;&quot;&gt;提前下账&lt;/span&gt;" style="ellipse;whiteSpace=wrap;html=1;" parent="1" vertex="1">
          <mxGeometry x="145" y="537" width="120" height="47.5" as="geometry" />
        </mxCell>
        <mxCell id="b81xQP9UtocRlLRCst7A-24" value="&amp;lt;&amp;lt;include&amp;gt;&amp;gt;" style="endArrow=open;endSize=12;dashed=1;html=1;rounded=0;exitX=1;exitY=0.5;exitDx=0;exitDy=0;entryX=0;entryY=0.5;entryDx=0;entryDy=0;" parent="1" source="b81xQP9UtocRlLRCst7A-23" target="b81xQP9UtocRlLRCst7A-8" edge="1">
          <mxGeometry width="160" relative="1" as="geometry">
            <mxPoint x="260" y="560" as="sourcePoint" />
            <mxPoint x="420" y="560" as="targetPoint" />
          </mxGeometry>
        </mxCell>
        <mxCell id="b81xQP9UtocRlLRCst7A-25" value="&lt;span style=&quot;font-size: 14px;&quot;&gt;自扣结清&lt;/span&gt;" style="ellipse;whiteSpace=wrap;html=1;" parent="1" vertex="1">
          <mxGeometry x="145" y="230" width="120" height="47.5" as="geometry" />
        </mxCell>
        <mxCell id="b81xQP9UtocRlLRCst7A-28" value="&amp;lt;&amp;lt;include&amp;gt;&amp;gt;" style="endArrow=open;endSize=12;dashed=1;html=1;rounded=0;entryX=0;entryY=0.5;entryDx=0;entryDy=0;exitX=1;exitY=0.5;exitDx=0;exitDy=0;" parent="1" source="b81xQP9UtocRlLRCst7A-25" edge="1">
          <mxGeometry width="160" relative="1" as="geometry">
            <mxPoint x="270" y="250" as="sourcePoint" />
            <mxPoint x="430" y="244.5" as="targetPoint" />
          </mxGeometry>
        </mxCell>
        <mxCell id="t9ajOp9CZbKYjf03r2sE-1" value="" style="endArrow=open;endSize=12;html=1;rounded=0;exitX=0.5;exitY=0;exitDx=0;exitDy=0;exitPerimeter=0;entryX=1;entryY=0.5;entryDx=0;entryDy=0;" edge="1" parent="1" source="b81xQP9UtocRlLRCst7A-1" target="b81xQP9UtocRlLRCst7A-4">
          <mxGeometry x="0.0001" width="160" relative="1" as="geometry">
            <mxPoint x="55" y="464" as="sourcePoint" />
            <mxPoint x="150" y="444" as="targetPoint" />
            <mxPoint as="offset" />
          </mxGeometry>
        </mxCell>
        <mxCell id="t9ajOp9CZbKYjf03r2sE-2" value="" style="endArrow=open;endSize=12;html=1;rounded=0;exitX=0;exitY=0.3333333333333333;exitDx=0;exitDy=0;exitPerimeter=0;entryX=1;entryY=0.5;entryDx=0;entryDy=0;" edge="1" parent="1" source="b81xQP9UtocRlLRCst7A-1" target="b81xQP9UtocRlLRCst7A-5">
          <mxGeometry x="0.0001" width="160" relative="1" as="geometry">
            <mxPoint x="695" y="365" as="sourcePoint" />
            <mxPoint x="560" y="255" as="targetPoint" />
            <mxPoint as="offset" />
          </mxGeometry>
        </mxCell>
        <mxCell id="t9ajOp9CZbKYjf03r2sE-3" value="" style="endArrow=open;endSize=12;html=1;rounded=0;exitX=0.5;exitY=0.5;exitDx=0;exitDy=0;exitPerimeter=0;entryX=1;entryY=0.5;entryDx=0;entryDy=0;" edge="1" parent="1" source="b81xQP9UtocRlLRCst7A-1" target="b81xQP9UtocRlLRCst7A-6">
          <mxGeometry x="0.0001" width="160" relative="1" as="geometry">
            <mxPoint x="680" y="385" as="sourcePoint" />
            <mxPoint x="560" y="334" as="targetPoint" />
            <mxPoint as="offset" />
          </mxGeometry>
        </mxCell>
        <mxCell id="t9ajOp9CZbKYjf03r2sE-4" value="" style="endArrow=open;endSize=12;html=1;rounded=0;exitX=0.544;exitY=0.622;exitDx=0;exitDy=0;exitPerimeter=0;entryX=1;entryY=0.5;entryDx=0;entryDy=0;" edge="1" parent="1" source="b81xQP9UtocRlLRCst7A-1" target="b81xQP9UtocRlLRCst7A-7">
          <mxGeometry x="0.0001" width="160" relative="1" as="geometry">
            <mxPoint x="690" y="395" as="sourcePoint" />
            <mxPoint x="560" y="414" as="targetPoint" />
            <mxPoint as="offset" />
          </mxGeometry>
        </mxCell>
        <mxCell id="t9ajOp9CZbKYjf03r2sE-5" value="" style="endArrow=open;endSize=12;html=1;rounded=0;exitX=0;exitY=1;exitDx=0;exitDy=0;exitPerimeter=0;entryX=1;entryY=0.5;entryDx=0;entryDy=0;" edge="1" parent="1" source="b81xQP9UtocRlLRCst7A-1" target="b81xQP9UtocRlLRCst7A-8">
          <mxGeometry x="0.0001" width="160" relative="1" as="geometry">
            <mxPoint x="696" y="402" as="sourcePoint" />
            <mxPoint x="560" y="494" as="targetPoint" />
            <mxPoint as="offset" />
          </mxGeometry>
        </mxCell>
      </root>
    </mxGraphModel>
  </diagram>
</mxfile>
